<?xml version="1.0" encoding="utf-8"?>
<!-- Generator: Adobe Illustrator 19.0.0, SVG Export Plug-In . SVG Version: 6.00 Build 0)  -->
<svg version="1.1" id="Capa_1" xmlns="http://www.w3.org/2000/svg" xmlns:xlink="http://www.w3.org/1999/xlink" x="0px" y="0px"
	 viewBox="-69 192.9 456 456" style="enable-background:new -69 192.9 456 456;" xml:space="preserve">
<style type="text/css">
	.st0{fill:#FFFFFF;}
</style>
<g>
	<g>
		<path class="st0" d="M276.6,531.7c-29.2,0-53.2,23.6-53.2,53.2c0,29.2,23.6,53.2,53.2,53.2c29.2,0,53.2-23.6,53.2-53.2
			C329.3,555.8,305.8,531.7,276.6,531.7z"/>
	</g>
</g>
<g>
	<g>
		<path class="st0" d="M370.3,277.8c-1,0-2.6-0.5-4.1-0.5H43.6L38.5,243C35.4,220.4,16,203.5-7,203.5h-41.5
			c-11.3,0-20.5,9.2-20.5,20.5c0,11.3,9.2,20.5,20.5,20.5H-7c2.6,0,4.6,2,5.1,4.6l31.7,216.1c4.1,27.1,27.6,47.6,55.3,47.6h213
			c26.6,0,49.7-18.9,55.3-45.1l33.3-166.4C388.7,290.6,381.6,279.8,370.3,277.8z"/>
	</g>
</g>
<g>
	<g>
		<path class="st0" d="M146,582.4c-1-28.2-24.6-50.7-52.7-50.7c-29.7,1.5-52.2,26.1-51.2,55.3c1,28.2,24.1,50.7,52.2,50.7h1
			C124.5,636.2,147.6,611.6,146,582.4z"/>
	</g>
</g>
</svg>
