<?xml version="1.0" encoding="iso-8859-1"?>
<!-- Generator: Adobe Illustrator 16.0.0, SVG Export Plug-In . SVG Version: 6.00 Build 0)  -->
<!DOCTYPE svg PUBLIC "-//W3C//DTD SVG 1.1//EN" "http://www.w3.org/Graphics/SVG/1.1/DTD/svg11.dtd">
<svg version="1.1" id="Capa_1" xmlns="http://www.w3.org/2000/svg" xmlns:xlink="http://www.w3.org/1999/xlink" x="0px" y="0px"
	 width="34.926px" height="34.926px" viewBox="0 0 34.926 34.926" style="enable-background:new 0 0 34.926 34.926;"
	 xml:space="preserve">
<g>
	<path d="M29.35,6.163H5.576C2.497,6.163,0,8.661,0,11.74v11.448c0,3.077,2.497,5.575,5.576,5.575H29.35
		c3.08,0,5.576-2.498,5.576-5.575V11.739C34.926,8.661,32.43,6.163,29.35,6.163z M9.111,25.339h-6.03v-2.055h6.03V25.339z
		 M16.689,25.339h-6.031v-2.055h6.031V25.339z M16.629,15.036c0-2.348,1.902-4.252,4.252-4.252c1.129,0,2.152,0.445,2.914,1.164
		c0.764-0.719,1.785-1.164,2.918-1.164c2.348,0,4.25,1.904,4.25,4.252c0,2.348-1.902,4.25-4.25,4.25
		c-1.133,0-2.154-0.443-2.918-1.162c-0.762,0.719-1.785,1.162-2.914,1.162C18.531,19.285,16.629,17.381,16.629,15.036z
		 M24.268,25.339h-6.031v-2.055h6.031V25.339z M31.844,25.339h-6.029v-2.055h6.029V25.339z"/>
</g>
<g>
</g>
<g>
</g>
<g>
</g>
<g>
</g>
<g>
</g>
<g>
</g>
<g>
</g>
<g>
</g>
<g>
</g>
<g>
</g>
<g>
</g>
<g>
</g>
<g>
</g>
<g>
</g>
<g>
</g>
</svg>
