<svg id="Layer_1" data-name="Layer 1" xmlns="http://www.w3.org/2000/svg" viewBox="0 0 101 101"><title>log_Artboard 2 copy 15</title><path d="M21.5,33A1.5,1.5,0,0,0,20,34.5v32a1.5,1.5,0,0,0,3,0v-32A1.5,1.5,0,0,0,21.5,33Z"/><path d="M29.5,33A1.5,1.5,0,0,0,28,34.5v32a1.5,1.5,0,0,0,3,0v-32A1.5,1.5,0,0,0,29.5,33Z"/><path d="M34.5,33A1.5,1.5,0,0,0,33,34.5v32a1.5,1.5,0,0,0,3,0v-32A1.5,1.5,0,0,0,34.5,33Z"/><path d="M63.5,33A1.5,1.5,0,0,0,62,34.5v32a1.5,1.5,0,0,0,3,0v-32A1.5,1.5,0,0,0,63.5,33Z"/><path d="M68.5,33A1.5,1.5,0,0,0,67,34.5v32a1.5,1.5,0,0,0,3,0v-32A1.5,1.5,0,0,0,68.5,33Z"/><path d="M45.5,33A1.5,1.5,0,0,0,44,34.5v32a1.5,1.5,0,0,0,3,0v-32A1.5,1.5,0,0,0,45.5,33Z"/><path d="M55.5,33A1.5,1.5,0,0,0,54,34.5v32a1.5,1.5,0,0,0,3,0v-32A1.5,1.5,0,0,0,55.5,33Z"/><path d="M82,66.5v-32a1.5,1.5,0,0,0-3,0v32a1.5,1.5,0,0,0,3,0Z"/><path d="M10.5,38A1.5,1.5,0,0,0,12,36.5V28h8.5a1.5,1.5,0,0,0,0-3h-10A1.5,1.5,0,0,0,9,26.5v10A1.5,1.5,0,0,0,10.5,38Z"/><path d="M91.5,25h-10a1.5,1.5,0,0,0,0,3H90v8.5a1.5,1.5,0,0,0,3,0v-10A1.5,1.5,0,0,0,91.5,25Z"/><path d="M20.5,74H12V66.5a1.5,1.5,0,0,0-3,0v9A1.5,1.5,0,0,0,10.5,77h10a1.5,1.5,0,0,0,0-3Z"/><path d="M91.5,65A1.5,1.5,0,0,0,90,66.5V74H81.5a1.5,1.5,0,0,0,0,3h10A1.5,1.5,0,0,0,93,75.5v-9A1.5,1.5,0,0,0,91.5,65Z"/></svg>