<svg height="512pt" viewBox="0 -50 512 512" width="512pt" xmlns="http://www.w3.org/2000/svg"><path d="m0 0v411.921875h512v-411.921875zm482 30v90.097656h-452v-90.097656zm-452 351.921875v-231.824219h452v231.824219zm0 0"/><path d="m60.035156 60.046875h30.023438v30h-30.023438zm0 0"/><path d="m120.085938 60.046875h30.023437v30h-30.023437zm0 0"/><path d="m180.132812 60.046875h30.023438v30h-30.023438zm0 0"/><path d="m278.023438 311.863281h135.917968v30h-135.917968zm0 0"/><path d="m278.023438 251.007812h135.917968v30h-135.917968zm0 0"/><path d="m278.023438 190.152344h135.917968v30h-135.917968zm0 0"/><path d="m209.972656 257.953125c6.558594-8.199219 10.492188-18.585937 10.492188-29.878906 0-26.429688-21.5-47.929688-47.929688-47.929688-26.429687 0-47.929687 21.5-47.929687 47.929688 0 11.292969 3.933593 21.679687 10.496093 29.878906-16.566406 11.757813-27.402343 31.074219-27.402343 52.890625v31.019531h129.675781v-31.019531c0-21.816406-10.839844-41.132812-27.402344-52.890625zm-55.367187-29.878906c0-9.886719 8.042969-17.929688 17.929687-17.929688 9.886719 0 17.929688 8.042969 17.929688 17.929688s-8.042969 17.929687-17.929688 17.929687c-9.886718 0-17.929687-8.042968-17.929687-17.929687zm52.769531 83.789062h-69.675781v-1.019531c0-19.210938 15.625-34.839844 34.835937-34.839844 19.210938 0 34.839844 15.628906 34.839844 34.839844zm0 0"/></svg>