<svg id="Capa_1" enable-background="new 0 0 512 512" height="512" viewBox="0 0 512 512" width="512" xmlns="http://www.w3.org/2000/svg"><g><path d="m429.19 63.41h-83.87l-10-63.41h-158.64l-10 63.41h-83.87c-26.92 0-48.81 21.9-48.81 48.81v41.78h444v-41.78c0-26.91-21.89-48.81-48.81-48.81zm-232.14 0 5.27-33.41h107.36l5.27 33.41z"/><path d="m73.49 184 18.32 328h328.38l18.32-328zm94.1 284.54-14.13-233.77 29.95-1.81 14.13 233.77zm103.41-1.21h-30v-237.03h30zm73.41 1.21-29.95-1.81 14.13-233.77 29.95 1.81z"/></g></svg>