<?xml version="1.0" encoding="utf-8"?>
<!-- Generator: Adobe Illustrator 19.0.0, SVG Export Plug-In . SVG Version: 6.00 Build 0)  -->
<svg version="1.1" id="Camada_1" xmlns="http://www.w3.org/2000/svg" xmlns:xlink="http://www.w3.org/1999/xlink" x="0px" y="0px"
	 viewBox="-217 309.5 175.8 175.5" style="enable-background:new -217 309.5 175.8 175.5;" xml:space="preserve">
<style type="text/css">
	.st0{fill:#F18020;}
	.st1{fill:#0D8ECF;}
	.st2{enable-background:new    ;}
	.st3{fill:#FFFFFF;}
</style>
<g>
	<g>
		<path class="st0" d="M-135.4,387h-56.1c-2.4,0-3.8-1.9-3.2-4.3l15.6-56.5c0.6-2.3,3.1-4.3,5.5-4.3h56.1c2.4,0,3.8,1.9,3.2,4.3
			l-15.5,56.6C-130.5,385.1-133,387-135.4,387z"/>
		<path class="st1" d="M-153.9,456.5H-210c-2.4,0-3.8-1.9-3.2-4.3l15.6-56.4c0.6-2.3,3.1-4.3,5.5-4.3h56.1c2.4,0,3.8,1.9,3.2,4.3
			l-15.6,56.5C-149,454.6-151.5,456.5-153.9,456.5z"/>
		<path class="st1" d="M-82.9,456.5H-139c-2.4,0-3.8-1.9-3.2-4.3l15.6-56.4c0.6-2.3,3.1-4.3,5.5-4.3H-65c2.4,0,3.8,1.9,3.2,4.3
			l-15.6,56.5C-78,454.6-80.5,456.5-82.9,456.5z"/>
		<path class="st0" d="M-64,387h-56.1c-2.4,0-3.8-1.9-3.2-4.3l15.6-56.5c0.6-2.3,3.1-4.3,5.5-4.3h56.1c2.4,0,3.8,1.9,3.2,4.3
			l-15.6,56.5C-59.1,385.1-61.6,387-64,387z"/>
	</g>
	<g class="st2">
		<path class="st3" d="M-134.5,368.8c-0.9,3-2.5,5.4-4.9,7.3c-2.4,1.9-5.1,2.8-8.2,2.8h-36.1l2.9-10.1h36.1l2.9-10.2h-26.9
			c-3,0-5.1-0.9-6.5-2.8c-1.3-1.9-1.6-4.3-0.7-7.3l2.9-10.2c0.8-2.8,2.5-5.2,5-7.2c2.5-2,5.2-2.9,8-2.9h33.6l-2.9,10.1h-33.6
			l-2.9,10.2h26.9c2.9,0,5.1,1,6.5,2.9c1.4,1.9,1.7,4.3,0.8,7.2L-134.5,368.8z"/>
	</g>
	<g class="st2">
		<path class="st3" d="M-153.2,438.3c-0.9,3-2.5,5.4-4.9,7.3c-2.4,1.9-5.1,2.8-8.2,2.8h-36.1l2.9-10.1h36.1l2.9-10.2h-26.9
			c-3,0-5.1-0.9-6.5-2.8c-1.3-1.9-1.6-4.3-0.7-7.3l2.9-10.2c0.8-2.8,2.5-5.2,5-7.2c2.5-2,5.2-2.9,8-2.9h33.6l-2.9,10.1h-33.6
			l-2.9,10.2h26.9c2.9,0,5.1,1,6.5,2.9c1.4,1.9,1.7,4.3,0.8,7.2L-153.2,438.3z"/>
	</g>
	<g class="st2">
		<path class="st3" d="M-84,448.4h-40.5c-6.7,0-9.1-3.4-7.2-10.1l8.7-30.4c0.8-2.8,2.5-5.2,5-7.2c2.5-2,5.2-2.9,8-2.9h38.8
			l-2.9,10.1h-38.8l-8.7,30.4h30.3l2.9-10.2h-20.2l2.9-10.1h30.3L-84,448.4z"/>
	</g>
	<g class="st2">
		<path class="st3" d="M-58.9,361.2c-0.8,2.7-1.5,5.2-2.3,7.4c-2.2,6.8-6.5,10.3-12.9,10.3h-40.4l14.4-50.6h40.4
			c3,0,5.2,0.9,6.5,2.8c1.4,1.9,1.6,4.3,0.8,7.2l-2.5,8.9c-1.3,4.7-3.8,7-7.4,7C-58.9,354.8-57.7,357.1-58.9,361.2z M-71.2,368.8
			l2.9-10.2h-30.3l-2.9,10.2H-71.2z M-65.4,348.5l2.9-10.2h-30.3l-2.9,10.2H-65.4z"/>
	</g>
	<g class="st2">
		<path class="st3" d="M-208,471.2c0,0.4-0.1,0.8-0.4,1c-0.3,0.3-0.6,0.4-1.1,0.4h-5.2v-1.4h5.2v-1.5h-3.8c-0.4,0-0.8-0.1-1-0.4
			c-0.3-0.3-0.4-0.6-0.4-1v-1.5c0-0.4,0.1-0.7,0.4-1c0.3-0.3,0.6-0.4,1-0.4h4.8v1.4h-4.8v1.5h3.8c0.4,0,0.8,0.1,1,0.4s0.4,0.6,0.4,1
			V471.2z"/>
		<path class="st3" d="M-199.6,469c0,1-0.4,1.9-1.1,2.6c-0.7,0.7-1.6,1.1-2.6,1.1c-1,0-1.9-0.4-2.7-1.1s-1.1-1.6-1.1-2.6
			c0-1,0.4-1.9,1.1-2.7c0.7-0.7,1.6-1.1,2.7-1.1c1,0,1.9,0.4,2.6,1.1C-200,467.1-199.6,468-199.6,469z M-201.1,469
			c0-0.6-0.2-1.2-0.7-1.6c-0.4-0.5-1-0.7-1.6-0.7s-1.2,0.2-1.6,0.7c-0.5,0.5-0.7,1-0.7,1.6c0,0.6,0.2,1.2,0.7,1.6s1,0.7,1.6,0.7
			s1.2-0.2,1.6-0.7C-201.3,470.2-201.1,469.6-201.1,469z"/>
		<path class="st3" d="M-192.5,472.6h-5.8v-7.2h1.4v5.8h4.3V472.6z"/>
		<path class="st3" d="M-184.1,471.2c0,0.4-0.1,0.8-0.4,1c-0.3,0.3-0.6,0.4-1,0.4h-4.3c-0.4,0-0.8-0.1-1-0.4c-0.3-0.3-0.4-0.6-0.4-1
			v-5.8h1.4v5.8h4.3v-5.8h1.5V471.2z"/>
		<path class="st3" d="M-175.9,472.6h-5.5c-1,0-1.4-0.5-1.4-1.4v-4.4c0-0.4,0.1-0.7,0.4-1c0.3-0.3,0.6-0.4,1-0.4h5.5v1.4h-5.5v4.4
			h5.5V472.6z M-178.4,473.6c0,0.3-0.1,0.6-0.4,0.8s-0.6,0.3-0.9,0.3c-0.2,0-0.3,0-0.6,0v-0.3c0.1,0,0.2,0,0.3,0
			c0.2,0,0.3-0.1,0.5-0.2c0.2-0.1,0.2-0.3,0.2-0.5c0-0.3-0.2-0.4-0.5-0.4c0,0-0.1,0-0.1,0l0.7-1.1h0.4l-0.3,0.5
			C-178.7,472.9-178.4,473.2-178.4,473.6z"/>
		<path class="st3" d="M-167.4,469c0,1-0.4,1.9-1.1,2.6c-0.7,0.7-1.6,1.1-2.6,1.1c-1,0-1.9-0.4-2.7-1.1s-1.1-1.6-1.1-2.6
			c0-1,0.4-1.9,1.1-2.7c0.7-0.7,1.6-1.1,2.7-1.1c1,0,1.9,0.4,2.6,1.1C-167.8,467.1-167.4,468-167.4,469z M-168.9,469
			c0-0.6-0.2-1.2-0.7-1.6c-0.4-0.5-1-0.7-1.6-0.7s-1.2,0.2-1.6,0.7c-0.5,0.5-0.7,1-0.7,1.6c0,0.6,0.2,1.2,0.7,1.6s1,0.7,1.6,0.7
			s1.2-0.2,1.6-0.7C-169.1,470.2-168.9,469.6-168.9,469z M-169.3,463.4c0,0.5-0.2,0.9-0.6,1.1c-0.2,0.1-0.4,0.1-0.5,0.1
			c-0.3,0-0.6-0.1-1.1-0.3c-0.4-0.2-0.7-0.3-0.8-0.3c-0.2,0-0.3,0.1-0.4,0.2c0,0.1-0.1,0.2-0.1,0.4h-0.2c0-0.8,0.4-1.2,1.1-1.2
			c0.3,0,0.6,0.1,1,0.3c0.4,0.2,0.7,0.3,0.9,0.3c0.3,0,0.5-0.2,0.6-0.7H-169.3z"/>
		<path class="st3" d="M-160.6,472.6h-5.8v-7.2h5.8v1.4h-4.3v1.5h4.3v1.4h-4.3v1.5h4.3V472.6z"/>
		<path class="st3" d="M-152.5,471.2c0,0.4-0.1,0.8-0.4,1c-0.3,0.3-0.6,0.4-1.1,0.4h-5.2v-1.4h5.2v-1.5h-3.8c-0.4,0-0.8-0.1-1-0.4
			c-0.3-0.3-0.4-0.6-0.4-1v-1.5c0-0.4,0.1-0.7,0.4-1c0.3-0.3,0.6-0.4,1-0.4h4.8v1.4h-4.8v1.5h3.8c0.4,0,0.8,0.1,1,0.4s0.4,0.6,0.4,1
			V471.2z"/>
		<path class="st3" d="M-140.5,472.6h-5.8c-1,0-1.4-0.5-1.4-1.4v-4.4c0-0.4,0.1-0.7,0.4-1c0.3-0.3,0.6-0.4,1-0.4h5.5v1.4h-5.5v4.4
			h4.3v-1.5h-2.9v-1.4h4.3V472.6z"/>
		<path class="st3" d="M-133.3,472.6h-5.8v-7.2h5.8v1.4h-4.3v1.5h4.3v1.4h-4.3v1.5h4.3V472.6z"/>
		<path class="st3" d="M-124.9,472.6h-2.2l-3.4-2.9h-0.2v2.9h-1.4v-7.2h5.5c0.4,0,0.7,0.1,1,0.4c0.3,0.3,0.4,0.6,0.4,1v1.5
			c0,1-0.5,1.4-1.5,1.4h-1.8L-124.9,472.6z M-126.6,468.3v-1.5h-4.1v1.5H-126.6z"/>
		<path class="st3" d="M-118,472.6h-5.8v-7.2h5.8v1.4h-4.3v1.5h4.3v1.4h-4.3v1.5h4.3V472.6z"/>
		<path class="st3" d="M-109.4,472.6h-0.9l-4.9-4.7v4.7h-1.5v-7.2h0.9l4.9,4.7v-4.7h1.4V472.6z"/>
		<path class="st3" d="M-101.2,472.6h-5.5c-1,0-1.4-0.5-1.4-1.4v-4.4c0-0.4,0.1-0.7,0.4-1c0.3-0.3,0.6-0.4,1-0.4h5.5v1.4h-5.5v4.4
			h5.5V472.6z"/>
		<path class="st3" d="M-98.9,472.6h-1.4v-7.2h1.4V472.6z"/>
		<path class="st3" d="M-90.5,472.6h-1.5v-2.9h-4.3v2.9h-1.4v-5.8c0-0.4,0.1-0.8,0.4-1c0.3-0.3,0.6-0.4,1-0.4h4.3
			c0.3,0,0.7,0.2,1,0.5c0.3,0.3,0.5,0.6,0.5,1V472.6z M-91.9,468.3v-1.5h-4.3v1.5H-91.9z"/>
		<path class="st3" d="M-87.8,472.6h-1.4v-7.2h1.4V472.6z"/>
		<path class="st3" d="M-79.7,471.2c0,0.4-0.1,0.8-0.4,1c-0.3,0.3-0.6,0.4-1.1,0.4h-5.2v-1.4h5.2v-1.5H-85c-0.4,0-0.8-0.1-1-0.4
			c-0.3-0.3-0.4-0.6-0.4-1v-1.5c0-0.4,0.1-0.7,0.4-1c0.3-0.3,0.6-0.4,1-0.4h4.8v1.4H-85v1.5h3.8c0.4,0,0.8,0.1,1,0.4s0.4,0.6,0.4,1
			V471.2z"/>
	</g>
</g>
</svg>
