<?xml version="1.0" encoding="utf-8"?>
<!-- Generator: Adobe Illustrator 19.0.0, SVG Export Plug-In . SVG Version: 6.00 Build 0)  -->
<svg version="1.1" id="Layer_1" xmlns="http://www.w3.org/2000/svg" xmlns:xlink="http://www.w3.org/1999/xlink" x="0px" y="0px"
	 viewBox="0 0 155.3 97.3" style="enable-background:new 0 0 155.3 97.3;" xml:space="preserve">
<style type="text/css">
	.st0{fill:#ED1C2E;}
	.st1{fill:#FCB131;}
	.st2{fill:#003473;}
	.st3{fill:#FFFFFF;}
</style>
<g>
	<g>
		<g>
			<circle class="st0" cx="48.9" cy="50.4" r="43.1"/>
			<g>
				<path class="st1" d="M106.7,7.3c-11.1,0-21.3,4.2-28.9,11.2c-1.6,1.4-3,2.9-4.3,4.6h8.7c1.2,1.4,2.3,3,3.3,4.6H70.2
					c-0.9,1.5-1.7,3-2.5,4.6h20.2c0.7,1.5,1.3,3,1.8,4.6H65.9c-0.5,1.5-0.9,3-1.3,4.6H91c0.6,2.9,1,6,1,9.1c0,4.8-0.8,9.4-2.2,13.7
					H65.9c0.5,1.6,1.1,3.1,1.8,4.6h20.2c-0.7,1.6-1.6,3.1-2.5,4.6H70.2c1,1.6,2.1,3.1,3.3,4.6h8.7c-1.3,1.6-2.8,3.2-4.4,4.6
					c7.6,6.9,17.8,11.1,28.9,11.1c23.8,0,43.1-19.3,43.1-43.1C149.8,26.6,130.5,7.3,106.7,7.3z"/>
			</g>
		</g>
		<path class="st1" d="M144.1,74.4c0-0.8,0.6-1.4,1.4-1.4c0.8,0,1.4,0.6,1.4,1.4c0,0.8-0.6,1.4-1.4,1.4
			C144.7,75.8,144.1,75.2,144.1,74.4z M145.5,75.4c0.6,0,1.1-0.5,1.1-1.1c0-0.6-0.5-1.1-1.1-1.1c-0.6,0-1.1,0.5-1.1,1.1
			C144.4,75,144.9,75.4,145.5,75.4z M145.3,75H145v-1.2h0.5c0.1,0,0.2,0,0.3,0.1c0.1,0.1,0.2,0.2,0.2,0.3c0,0.1-0.1,0.3-0.2,0.3
			L146,75h-0.3l-0.2-0.5h-0.2V75z M145.3,74.3h0.2c0.1,0,0.1,0,0.2,0c0,0,0.1-0.1,0.1-0.1c0,0,0-0.1-0.1-0.1c-0.1,0-0.1,0-0.2,0
			h-0.2V74.3z"/>
	</g>
	<g>
		<g>
			<path class="st2" d="M38.8,55.1c-0.5-0.1-0.7-0.1-1-0.1c-2.7,0-4,0.9-4,2.7c0,1.1,0.7,1.8,1.7,1.8C37.4,59.5,38.8,57.7,38.8,55.1
				z M42.2,63c-0.6,0-3.9,0-3.9,0l0.1-1.8c-1.2,1.5-2.8,2.1-4.9,2.1c-2.5,0-4.3-2-4.3-4.9c0-4.3,3-6.9,8.2-6.9c0.5,0,1.2,0,1.9,0.1
				c0.1-0.6,0.2-0.8,0.2-1.2c0-1.2-0.8-1.6-3-1.6c-2.3,0-4.2,0.5-5,0.8c0-0.3,0.6-4,0.6-4c2.3-0.7,3.9-0.9,5.6-0.9
				c4,0,6.1,1.8,6.1,5.2c0,0.9-0.1,2-0.4,3.5C43.2,56.1,42.4,61.7,42.2,63z"/>
			<polygon class="st2" points="27.3,63 22.6,63 25.3,46.2 19.3,63 16.2,63 15.8,46.3 12.9,63 8.6,63 12.2,41.2 18.9,41.2 
				19.4,53.4 23.5,41.2 30.9,41.2 			"/>
			<path class="st2" d="M112.5,55.1c-0.5-0.1-0.7-0.1-1-0.1c-2.7,0-4,0.9-4,2.7c0,1.1,0.7,1.8,1.7,1.8
				C111.1,59.5,112.4,57.7,112.5,55.1z M115.9,63c-0.6,0-3.9,0-3.9,0l0.1-1.8c-1.2,1.5-2.8,2.1-4.9,2.1c-2.5,0-4.3-2-4.3-4.9
				c0-4.3,3-6.9,8.2-6.9c0.5,0,1.2,0,1.9,0.1c0.1-0.6,0.2-0.8,0.2-1.2c0-1.2-0.8-1.6-3-1.6c-2.3,0-4.2,0.5-5,0.8
				c0.1-0.3,0.7-4,0.7-4c2.3-0.7,3.9-0.9,5.6-0.9c4,0,6.1,1.8,6.1,5.2c0,0.9-0.1,2-0.4,3.5C116.9,56.1,116,61.7,115.9,63z"/>
			<path class="st2" d="M63,62.7c-1.3,0.4-2.3,0.6-3.4,0.6c-2.4,0-3.7-1.4-3.7-3.9c0-0.8,0.3-2.9,0.6-4.7c0.3-1.7,2-12.1,2-12.1h4.6
				l-0.5,2.7h2.8l-0.6,4.3h-2.8c-0.5,3.4-1.3,7.6-1.3,8.1c0,0.9,0.5,1.3,1.6,1.3c0.5,0,0.9-0.1,1.3-0.2L63,62.7z"/>
			<path class="st2" d="M77.3,62.6c-1.6,0.5-3.1,0.7-4.8,0.7c-5.2,0-7.9-2.7-7.9-7.9c0-6.1,3.5-10.5,8.1-10.5c3.8,0,6.3,2.5,6.3,6.4
				c0,1.3-0.2,2.6-0.6,4.4h-9.3c-0.3,2.6,1.3,3.7,4,3.7c1.7,0,3.2-0.3,4.8-1.1L77.3,62.6z M74.7,52.1c0-0.4,0.5-3.2-2.2-3.2
				c-1.5,0-2.5,1.1-3,3.2H74.7z"/>
			<path class="st2" d="M45,50.9c0,2.2,1.1,3.8,3.6,5c1.9,0.9,2.2,1.2,2.2,2c0,1.1-0.8,1.6-2.7,1.6c-1.4,0-2.7-0.2-4.2-0.7
				c0,0-0.6,3.9-0.6,4.1c1.1,0.2,2,0.4,4.9,0.5c4.9,0,7.2-1.9,7.2-5.9c0-2.4-1-3.9-3.3-5c-2-0.9-2.2-1.1-2.2-1.9
				c0-1,0.8-1.5,2.3-1.5c0.9,0,2.2,0.1,3.4,0.3l0.7-4.1c-1.2-0.2-3-0.3-4.1-0.3C46.8,44.8,45,47.6,45,50.9z"/>
			<path class="st2" d="M100,45.3c1.3,0,2.5,0.3,4.2,1.2l0.8-4.7c-0.7-0.3-3.1-1.8-5.1-1.8c-3.1,0-5.8,1.6-7.6,4.1
				c-2.7-0.9-3.8,0.9-5.2,2.7L85.8,47c0.1-0.6,0.2-1.2,0.1-1.8h-4.3C81,50.7,80,56.3,79.2,61.8L79,63h4.7c0.8-5.1,1.2-8.3,1.5-10.5
				l1.8-1c0.3-1,1.1-1.3,2.7-1.3c-0.2,1.2-0.3,2.4-0.3,3.6c0,5.8,3.1,9.4,8.2,9.4c1.3,0,2.4-0.2,4.1-0.6l0.8-5
				c-1.6,0.8-2.8,1.1-4,1.1c-2.7,0-4.4-2-4.4-5.3C94.1,48.7,96.5,45.3,100,45.3z"/>
			<path class="st2" d="M139.6,41.2l-1,6.3c-1.3-1.7-2.7-2.9-4.5-2.9c-2.4,0-4.5,1.8-5.9,4.4c-2-0.4-4-1.1-4-1.1l0,0
				c0.2-1.5,0.2-2.4,0.2-2.7h-4.3c-0.6,5.5-1.6,11.1-2.4,16.6l-0.2,1.2h4.7c0.6-4.1,1.1-7.5,1.5-10.2c1.6-1.4,2.4-2.7,4-2.6
				c-0.7,1.7-1.1,3.7-1.1,5.8c0,4.4,2.2,7.4,5.6,7.4c1.7,0,3-0.6,4.3-2l-0.2,1.7h4.4l3.6-21.9H139.6z M133.8,58.9
				c-1.6,0-2.4-1.2-2.4-3.5c0-3.5,1.5-6,3.6-6c1.6,0,2.5,1.2,2.5,3.5C137.5,56.4,136,58.9,133.8,58.9z"/>
		</g>
		<g>
			<polygon class="st3" points="28.7,61.7 24,61.7 26.7,44.9 20.7,61.7 17.5,61.7 17.1,45 14.3,61.7 9.9,61.7 13.6,39.9 20.3,39.9 
				20.5,53.4 25,39.9 32.3,39.9 			"/>
			<path class="st3" d="M40.2,53.8c-0.5-0.1-0.7-0.1-1-0.1c-2.7,0-4,0.9-4,2.7c0,1.1,0.7,1.8,1.7,1.8C38.7,58.2,40.1,56.4,40.2,53.8
				z M43.6,61.7c-0.6,0-3.9,0-3.9,0l0.1-1.8C38.6,61.3,37,62,34.9,62c-2.5,0-4.3-2-4.3-4.9c0-4.3,3-6.8,8.2-6.8c0.5,0,1.2,0,1.9,0.1
				c0.1-0.6,0.2-0.8,0.2-1.2c0-1.2-0.8-1.6-3-1.6c-2.3,0-4.2,0.5-5,0.8c0-0.3,0.6-4,0.6-4c2.3-0.7,3.9-0.9,5.6-0.9
				c4,0,6.1,1.8,6.1,5.2c0,0.9-0.1,2-0.4,3.5C44.6,54.9,43.7,60.4,43.6,61.7z"/>
			<path class="st3" d="M106.3,40.5l-0.8,4.7c-1.7-0.8-2.9-1.2-4.2-1.2c-3.5,0-5.9,3.4-5.9,8.2c0,3.3,1.6,5.3,4.4,5.3
				c1.2,0,2.4-0.4,4-1.1l-0.8,5c-1.7,0.5-2.8,0.6-4.1,0.6c-5,0-8.2-3.6-8.2-9.4c0-7.8,4.3-13.3,10.5-13.3
				C103.2,39.3,105.6,40.2,106.3,40.5z"/>
			<path class="st3" d="M113.9,53.8c-0.5-0.1-0.7-0.1-1-0.1c-2.7,0-4,0.9-4,2.7c0,1.1,0.7,1.8,1.7,1.8
				C112.4,58.2,113.8,56.4,113.9,53.8z M117.3,61.7c-0.6,0-3.9,0-3.9,0l0.1-1.8c-1.2,1.5-2.8,2.1-4.9,2.1c-2.5,0-4.3-2-4.3-4.9
				c0-4.3,3-6.8,8.2-6.8c0.5,0,1.2,0,1.9,0.1c0.1-0.6,0.2-0.8,0.2-1.2c0-1.2-0.8-1.6-3-1.6c-2.3,0-4.2,0.5-5,0.8c0-0.3,0.6-4,0.6-4
				c2.3-0.7,3.9-0.9,5.6-0.9c4,0,6.1,1.8,6.1,5.2c0,0.9-0.1,2-0.4,3.5C118.3,54.9,117.4,60.4,117.3,61.7z"/>
			<path class="st3" d="M64.4,61.4C63.1,61.8,62.1,62,61,62c-2.4,0-3.7-1.4-3.7-3.9c0-0.8,0.3-2.9,0.6-4.7c0.3-1.7,2-12.1,2-12.1
				h4.6l-0.5,2.7h2.4l-0.6,4.3h-2.4c-0.5,3.4-1.3,7.6-1.3,8.1c0,0.9,0.5,1.3,1.6,1.3c0.5,0,0.9-0.1,1.3-0.2L64.4,61.4z"/>
			<path class="st3" d="M78.6,61.3C77,61.8,75.5,62,73.9,62c-5.2,0-7.9-2.7-7.9-7.9c0-6.1,3.5-10.5,8.1-10.5c3.8,0,6.3,2.5,6.3,6.4
				c0,1.3-0.2,2.6-0.6,4.4h-9.3c-0.3,2.6,1.3,3.7,4,3.7c1.7,0,3.2-0.3,4.8-1.1L78.6,61.3z M76,50.8c0-0.4,0.5-3.2-2.2-3.2
				c-1.5,0-2.5,1.1-3,3.2H76z"/>
			<path class="st3" d="M46.4,49.6c0,2.3,1.1,3.8,3.6,5c1.9,0.9,2.2,1.2,2.2,2c0,1.1-0.8,1.6-2.7,1.6c-1.4,0-2.7-0.2-4.2-0.7
				c0,0-0.6,3.9-0.6,4.1c1.1,0.2,2,0.4,4.9,0.5c4.9,0,7.2-1.9,7.2-5.9c0-2.4-1-3.9-3.3-5c-2-0.9-2.2-1.1-2.2-1.9
				c0-1,0.8-1.5,2.3-1.5c0.9,0,2.2,0.1,3.4,0.3l0.7-4.1c-1.2-0.2-3-0.3-4.1-0.3C48.2,43.5,46.4,46.3,46.4,49.6z"/>
			<path class="st3" d="M142,61.7h-4.4l0.2-1.7c-1.3,1.4-2.6,2-4.3,2c-3.4,0-5.6-2.9-5.6-7.4c0-5.9,3.5-10.9,7.6-10.9
				c1.8,0,3.2,0.7,4.5,2.4l1-6.3h4.6L142,61.7z M135.1,57.6c2.2,0,3.7-2.5,3.7-6c0-2.3-0.9-3.5-2.5-3.5c-2.1,0-3.6,2.5-3.6,6
				C132.7,56.4,133.5,57.6,135.1,57.6z"/>
			<path class="st3" d="M121.5,43.9c-0.6,5.5-1.6,11.1-2.4,16.6l-0.2,1.2h4.7c1.7-10.9,2.1-13,4.7-12.7c0.4-2.2,1.2-4.2,1.8-5.2
				c-2-0.4-3.1,0.7-4.5,2.8c0.1-0.9,0.3-1.8,0.3-2.7H121.5z"/>
			<path class="st3" d="M83,43.9c-0.6,5.5-1.6,11.1-2.4,16.6l-0.2,1.2H85c1.7-10.9,2.1-13,4.7-12.7c0.4-2.2,1.2-4.2,1.8-5.2
				c-2-0.4-3.1,0.7-4.5,2.8c0.1-0.9,0.3-1.8,0.3-2.7H83z"/>
			<g>
				<path class="st3" d="M144.1,60.3c0-0.8,0.6-1.4,1.4-1.4c0.8,0,1.4,0.6,1.4,1.4c0,0.8-0.6,1.4-1.4,1.4
					C144.7,61.7,144.1,61.1,144.1,60.3z M145.5,61.4c0.6,0,1.1-0.5,1.1-1.1c0-0.6-0.5-1.1-1.1-1.1c-0.6,0-1.1,0.5-1.1,1.1
					C144.4,60.9,144.9,61.4,145.5,61.4z M145.3,60.9H145v-1.2h0.5c0.1,0,0.2,0,0.3,0.1c0.1,0.1,0.2,0.2,0.2,0.3
					c0,0.1-0.1,0.3-0.2,0.3l0.2,0.5h-0.3l-0.2-0.5h-0.2V60.9z M145.3,60.2h0.2c0.1,0,0.1,0,0.2,0c0,0,0.1-0.1,0.1-0.1
					c0,0,0-0.1-0.1-0.1c0,0-0.1,0-0.2,0h-0.2V60.2z"/>
			</g>
		</g>
	</g>
</g>
</svg>
