<?xml version="1.0" encoding="iso-8859-1"?>
<!-- Generator: Adobe Illustrator 17.1.0, SVG Export Plug-In . SVG Version: 6.00 Build 0)  -->
<!DOCTYPE svg PUBLIC "-//W3C//DTD SVG 1.1//EN" "http://www.w3.org/Graphics/SVG/1.1/DTD/svg11.dtd">
<svg version="1.1" id="Capa_1" xmlns="http://www.w3.org/2000/svg" xmlns:xlink="http://www.w3.org/1999/xlink" x="0px" y="0px"
	 viewBox="0 0 264 264" style="enable-background:new 0 0 264 264;" xml:space="preserve">
<g>
	<path d="M254,2.5H10c-5.514,0-10,4.486-10,10v44c0,5.514,4.486,10,10,10h244c5.514,0,10-4.486,10-10v-44
		C264,6.986,259.514,2.5,254,2.5z"/>
	<path d="M254,100.5H10c-5.514,0-10,4.486-10,10v44c0,5.514,4.486,10,10,10h244c5.514,0,10-4.486,10-10v-44
		C264,104.986,259.514,100.5,254,100.5z"/>
	<path d="M254,197.5H10c-5.514,0-10,4.486-10,10v44c0,5.514,4.486,10,10,10h244c5.514,0,10-4.486,10-10v-44
		C264,201.986,259.514,197.5,254,197.5z"/>
</g>
<g>
</g>
<g>
</g>
<g>
</g>
<g>
</g>
<g>
</g>
<g>
</g>
<g>
</g>
<g>
</g>
<g>
</g>
<g>
</g>
<g>
</g>
<g>
</g>
<g>
</g>
<g>
</g>
<g>
</g>
</svg>
