<?xml version="1.0" encoding="utf-8"?>
<!-- Generator: Adobe Illustrator 19.0.0, SVG Export Plug-In . SVG Version: 6.00 Build 0)  -->
<svg version="1.1" id="Capa_1" xmlns="http://www.w3.org/2000/svg" xmlns:xlink="http://www.w3.org/1999/xlink" x="0px" y="0px"
	 viewBox="-143 266.2 308.7 308.7" style="enable-background:new -143 266.2 308.7 308.7;" xml:space="preserve">
<style type="text/css">
	.st0{fill:#FFFFFF;}
</style>
<g>
	<rect x="-104.9" y="304.3" class="st0" width="47.6" height="47.6"/>
	<rect x="-104.9" y="489.2" class="st0" width="47.6" height="47.6"/>
	<path class="st0" d="M-143,430.1v21.1v13.6v110.1h123.7v-66.6H9.3v30.6v2v32.6H44V545h27.2v28.6h34.7v-32.6H131v32.6h34.7v-34.7
		H133v-32.6H98.4v32.6H75.6v-67.3H44V443h32.6v32.6h34.7v-21.8H131v14.3v18.4v16.3h34.7v-16.3v-18.4v-16.3h-21.8v-30.6h21.8V390
		v-3.4V266.2H41.9v0.2H9.3v37.8h-28.6v-38.1H-143v109.5V390v20.4h21.8v19.7H-143L-143,430.1z M-41,553.1h-80.2v-80.2H-41
		C-41,472.9-41,553.1-41,553.1z M11.3,475.6h29.6v30.6H11.3V475.6z M11.3,410.4h27.5V441H11.3V410.4z M131,419.2h-18.7v-10.9H44V390
		h87L131,419.2L131,419.2z M63.7,288h80.2v80.2H63.7V288z M41.9,375.7H11.3v-67.8h30.6V375.7z M9.3,408.3h-28.5v-30.6H9.3V408.3z
		 M-121.2,288H-41v80.2h-80.2V288z M-53.8,390v20.4h30.5V443H9.3v30.6h-28.6v-22.4h-89.1V443h19.7h2h32.6v-34.7h-32.6h-2h-19.7V390
		L-53.8,390L-53.8,390z"/>
	<rect x="80" y="304.3" class="st0" width="47.6" height="47.6"/>
</g>
</svg>
