<?xml version="1.0" encoding="utf-8"?>
<!-- Generator: Adobe Illustrator 19.0.0, SVG Export Plug-In . SVG Version: 6.00 Build 0)  -->
<svg version="1.1" id="Camada_1" xmlns="http://www.w3.org/2000/svg" xmlns:xlink="http://www.w3.org/1999/xlink" x="0px" y="0px"
	 viewBox="0 0 192.8 131" style="enable-background:new 0 0 192.8 131;" xml:space="preserve">
<style type="text/css">
	.st0{fill-rule:evenodd;clip-rule:evenodd;fill:#FFFFFF;}
	.st1{fill-rule:evenodd;clip-rule:evenodd;fill:#005883;}
	.st2{fill-rule:evenodd;clip-rule:evenodd;fill:#F2A62C;}
</style>
<path class="st0" d="M174.5,123.4H18.2c-8.5,0-15.4-6.9-15.4-15.4V20.8c0-8.5,6.9-15.4,15.4-15.4h156.3c8.5,0,15.4,6.9,15.4,15.4
	V108C189.9,116.5,183,123.4,174.5,123.4z"/>
<path class="st1" d="M189.9,18.8c0-9-4.7-13.4-13.7-13.4H16.6C12,5.4,8.7,6.6,6.5,9c-2.5,2.5-3.7,5.7-3.7,9.8v91.1
	c0,4.1,1.2,7.2,3.7,9.8c2.5,2.5,5.8,3.7,10,3.7h159.6c9.1,0,13.7-4.5,13.7-13.4V18.8L189.9,18.8z M176.2,7.5
	c7.5,0,11.3,3.8,11.3,11.3v91.1c0,7.6-3.8,11.3-11.3,11.3H16.6c-3.6,0-6.4-1.1-8.4-3.2C6,116,5,113.2,5,109.9V18.8
	C5,11.3,8.7,7.5,16.6,7.5H176.2L176.2,7.5z"/>
<path class="st1" d="M17.8,12.7c-3,0-5,0.5-6,1.6c-0.9,1.2-1.3,3.2-1.3,6.1v19.7h171.8V20.4c0-5.2-2.5-7.6-7.6-7.6H17.8L17.8,12.7z"
	/>
<path class="st2" d="M10.5,108.1c0,5.2,2.5,7.9,7.4,7.9h156.8c5.1,0,7.6-2.7,7.6-7.9V88.4H10.5V108.1L10.5,108.1z"/>
<path class="st1" d="M67.4,48.5c0,0.9-0.1,1.6-0.5,2.1L54.5,72.2l-0.8-26.3H33.9l6.7,3.2c1.9,1.2,2.9,2.8,2.9,4.7l1.8,27.9H55
	l23.2-35.9H66.3C67,46.5,67.4,47.5,67.4,48.5L67.4,48.5z"/>
<path class="st1" d="M147.5,47l0.8-1.1h-12.1c0.4,0.4,0.6,0.6,0.6,0.8c-0.1,0.6-0.4,0.9-0.6,1.3l-17.6,32.1
	c-0.4,0.6-0.8,1.1-1.3,1.6h10l-0.5-1.1c0-0.9,0.5-2.6,1.6-5l2.1-4h10.3c0.4,3.3,0.7,6.1,0.8,8.1l-0.8,1.9H153l-1.8-2.7L147.5,47
	L147.5,47z M140.1,66.7h-7.4l6.3-12.1L140.1,66.7L140.1,66.7z"/>
<path class="st1" d="M109.5,44.1c-3.8,0-7.1,1.1-10,3.2c-3.2,1.8-4.7,4.2-4.7,7.1c0,3.3,1.1,6.2,3.4,8.4l6.9,4.7
	c2.5,1.8,3.7,3.3,3.7,4.7c0,1.3-0.6,2.5-1.8,3.5c-1.2,0.9-2.5,1.3-4.2,1.3c-2.5,0-6.7-1.8-12.6-5v6.6c4.6,2.8,9.1,4.2,13.4,4.2
	c4.1,0,7.6-1.1,10.5-3.7c3.2-2.3,4.7-5.1,4.7-8.1c0-2.5-1.1-4.9-3.7-7.4l-6.6-4.7c-2.2-1.8-3.4-3.3-3.4-4.5c0-2.8,1.6-4.2,5-4.2
	c2.3,0,5.6,1.3,10,4l1.3-6.9C117.7,45.1,113.8,44.1,109.5,44.1L109.5,44.1z"/>
<path class="st1" d="M83.2,81.8c-0.1-1.5-0.4-2.8-0.6-4.2l9-29l2.1-2.6H80.8c0.1,0.6,0.3,1.5,0.4,2.1c0,0.6,0,1.4-0.1,2.1l-9,28.7
	l-1.8,2.9H83.2L83.2,81.8z"/>
</svg>
